<svg xmlns="http://www.w3.org/2000/svg" xmlns:xlink="http://www.w3.org/1999/xlink" xml:space="preserve" style="shape-rendering:geometricPrecision;text-rendering:geometricPrecision;image-rendering:optimizeQuality;" viewBox="0 0 6.82666 8.533325000000001" x="0px" y="0px" fill-rule="evenodd" clip-rule="evenodd"><defs><style type="text/css">
   
    .fil1 {fill:none}
    .fil0 {fill:black;fill-rule:nonzero}
   
  </style></defs><g><path class="fil0" d="M1.80667 1.14l2.53407 0c0.208878,0 0.398717,0.0853898 0.536287,0.222969 0.137579,0.137571 0.222969,0.327409 0.222969,0.536287l0 2.32333 0 0.08 -0.08 0 -3.21333 0 -0.08 0 0 -0.08 0 -3.00259 0 -0.08 0.08 0zm2.53407 0.16l-2.45407 0 0 2.84259 3.05333 0 0 -2.24333c0,-0.164713 -0.0674409,-0.314512 -0.176094,-0.423161 -0.10865,-0.108654 -0.258449,-0.176094 -0.423161,-0.176094z"/><path class="fil0" d="M5.53203 5.68667l-4.2374 0 -0.08 0 0 -0.08 0 -1.38408 0 -0.08 0.08 0 4.2374 0 0.08 0 0 0.08 0 1.38408 0 0.08 -0.08 0zm-4.1574 -0.16l4.0774 0 0 -1.22408 -4.0774 0 0 1.22408z"/><polygon class="fil0" points="2.2918,2.11202 4.53486,2.11202 4.53486,2.27202 2.2918,2.27202 "/><polygon class="fil0" points="2.2918,2.67452 4.53486,2.67452 4.53486,2.83452 2.2918,2.83452 "/><polygon class="fil0" points="2.2918,3.23702 4.53486,3.23702 4.53486,3.39702 2.2918,3.39702 "/><path class="fil0" d="M1.64799 4.49948l0.284941 0 0.167606 0.280307 0.167602 -0.280307 0.283205 0 -0.322835 0.482512 0 0.347772 -0.257106 0 0 -0.347772 -0.323413 -0.482512zm1.3876 0.693224l-0.292287 0 -0.0402126 0.137059 -0.26213 0 0.312008 -0.830283 0.279724 0 0.312201 0.830283 -0.268512 0 -0.0407913 -0.137059zm-0.0537402 -0.179591l-0.0918228 -0.298476 -0.0912441 0.298476 0.183067 0zm0.442299 -0.513634l0.337528 0 0.130291 0.50513 0.129713 -0.50513 0.336366 0 0 0.830283 -0.209551 0 0 -0.633102 -0.162575 0.633102 -0.189642 0 -0.161996 -0.633102 0 0.633102 -0.210134 0 0 -0.830283zm1.09744 0l0.25672 0 0 0.625756 0.40035 0 0 0.204528 -0.657071 0 0 -0.830283z"/></g><rect class="fil1" width="6.82666" height="6.82666"/><text x="0" y="21.82666" fill="#000000" font-size="5px" font-weight="bold" font-family="'Helvetica Neue', Helvetica, Arial-Unicode, Arial, Sans-serif">Created by Vector Valley</text><text x="0" y="26.82666" fill="#000000" font-size="5px" font-weight="bold" font-family="'Helvetica Neue', Helvetica, Arial-Unicode, Arial, Sans-serif">from the Noun Project</text></svg>